<?xml version="1.0" encoding="utf-8"?>
<!-- Generator: Adobe Illustrator 16.0.0, SVG Export Plug-In . SVG Version: 6.00 Build 0)  -->
<!DOCTYPE svg PUBLIC "-//W3C//DTD SVG 1.1//EN" "http://www.w3.org/Graphics/SVG/1.1/DTD/svg11.dtd">
<svg version="1.1"
	 id="svg2" xmlns:dc="http://purl.org/dc/elements/1.1/" xmlns:cc="http://creativecommons.org/ns#" xmlns:rdf="http://www.w3.org/1999/02/22-rdf-syntax-ns#" xmlns:svg="http://www.w3.org/2000/svg" xmlns:sodipodi="http://sodipodi.sourceforge.net/DTD/sodipodi-0.dtd" xmlns:inkscape="http://www.inkscape.org/namespaces/inkscape" inkscape:version="0.91pre3 r13670" sodipodi:docname="logo2.svg"
	 xmlns="http://www.w3.org/2000/svg" xmlns:xlink="http://www.w3.org/1999/xlink" x="0px" y="0px" width="314.092px" height="260px"
	 viewBox="0 0 314.092 260" enable-background="new 0 0 314.092 260" xml:space="preserve">
<sodipodi:namedview  id="base" pagecolor="#ffffff" bordercolor="#666666" borderopacity="1.0" inkscape:zoom="0.35" inkscape:cx="-195" inkscape:cy="520" showgrid="false" inkscape:pageshadow="2" inkscape:document-units="px" inkscape:window-width="1680" inkscape:current-layer="layer1" inkscape:window-height="988" inkscape:window-x="-8" inkscape:window-y="-8" inkscape:pageopacity="0.0" inkscape:window-maximized="1">
	</sodipodi:namedview>
<g id="layer1" inkscape:label="Ebene 1" inkscape:groupmode="layer">
	<g id="g3367" transform="matrix(4.1578947,0,0,4.1578947,-876.21688,-879.89719)">
		<path id="path3340" inkscape:connector-curvature="0" d="M248.604,215.07c-11.638,0-21.048,9.409-21.048,21.048
			c0,11.638,9.41,21.048,21.048,21.048c11.638,0,21.048-9.41,21.048-21.048C269.651,224.48,260.242,215.07,248.604,215.07z
			 M251.526,239.486l-1.832,9.459c-0.05,0.297-0.347,0.495-0.644,0.396l-0.594-0.149c-0.149-0.05-0.297-0.149-0.347-0.297
			c-0.049-0.05-0.099-0.149-0.099-0.198l-2.03-9.261c-0.05-0.297,0.099-0.594,0.396-0.644l0.594-0.149
			c0.297-0.049,0.594,0.099,0.644,0.396l1.238,5.695l0.99-5.695c0.05-0.297,0.347-0.495,0.644-0.396l0.594,0.149
			C251.377,238.891,251.575,239.188,251.526,239.486L251.526,239.486z M255.933,237.356c0,0.297-0.248,0.545-0.545,0.545h-0.446
			v10.945c0,0.297-0.248,0.545-0.545,0.545h-0.594c-0.297,0-0.545-0.248-0.545-0.545v-10.945h-9.211v10.945
			c0,0.297-0.248,0.545-0.545,0.545h-0.594c-0.297,0-0.545-0.248-0.545-0.545v-10.945h-0.446c-0.297,0-0.545-0.248-0.545-0.545
			v-0.594c0-0.297,0.248-0.545,0.545-0.545h0.446v-12.529v-0.05c-0.05-0.297,0.149-0.545,0.396-0.594l0.594-0.149
			c0.297-0.05,0.594,0.099,0.644,0.396l2.526,11.539c0.05,0.297-0.099,0.594-0.396,0.644l-0.594,0.149
			c-0.297,0.05-0.594-0.099-0.644-0.396l-0.842-3.912v4.952h9.212v-4.952l-0.842,3.912c-0.05,0.297-0.347,0.495-0.644,0.396
			l-0.594-0.149c-0.297-0.049-0.495-0.347-0.396-0.644l2.526-11.539c0.05-0.297,0.347-0.495,0.644-0.396l0.594,0.149
			c0.297,0.05,0.446,0.347,0.396,0.594v0.05v12.529h0.446c0.297,0,0.545,0.248,0.545,0.545L255.933,237.356L255.933,237.356z"/>
		<polygon id="polygon3342" points="214.135,271.429 214.135,268.16 217.007,268.16 217.007,271.429 217.998,271.429 
			217.998,264.049 217.007,264.049 217.007,267.368 214.135,267.368 214.135,264.049 213.145,264.049 213.145,271.429 		"/>
		<path id="path3344" inkscape:connector-curvature="0" d="M224.337,263.95c-0.743,0-1.337,0.248-1.783,0.743
			s-0.644,1.189-0.644,2.03v2.031c0,0.891,0.198,1.585,0.644,2.03c0.446,0.495,1.04,0.743,1.783,0.743s1.387-0.248,1.832-0.743
			c0.446-0.495,0.693-1.188,0.693-2.03v-2.031c0-0.891-0.248-1.535-0.693-2.03C225.724,264.198,225.129,263.95,224.337,263.95z
			 M225.823,268.754c0,0.644-0.149,1.139-0.396,1.486c-0.248,0.347-0.644,0.495-1.089,0.495c-0.445,0-0.792-0.149-1.04-0.495
			c-0.248-0.347-0.396-0.842-0.396-1.486v-2.031c0-0.644,0.099-1.139,0.347-1.486c0.248-0.347,0.594-0.495,1.09-0.495
			s0.842,0.148,1.089,0.495c0.248,0.347,0.396,0.842,0.396,1.486L225.823,268.754L225.823,268.754z"/>
		<polygon id="polygon3346" points="231.766,270.636 231.766,264.049 230.726,264.049 230.726,271.429 234.638,271.429 
			234.638,270.636 		"/>
		<path id="path3348" inkscape:connector-curvature="0" d="M240.135,263.95c-0.743,0-1.337,0.248-1.783,0.743
			s-0.644,1.189-0.644,2.03v2.031c0,0.891,0.198,1.585,0.644,2.03c0.446,0.495,1.04,0.743,1.783,0.743
			c0.743,0,1.387-0.248,1.832-0.743c0.446-0.495,0.693-1.188,0.693-2.03v-2.031c0-0.891-0.248-1.535-0.693-2.03
			C241.522,264.198,240.927,263.95,240.135,263.95z M241.621,268.754c0,0.644-0.149,1.139-0.396,1.486
			c-0.248,0.347-0.644,0.495-1.089,0.495c-0.446,0-0.792-0.149-1.04-0.495c-0.248-0.347-0.396-0.842-0.396-1.486v-2.031
			c0-0.644,0.099-1.139,0.347-1.486c0.248-0.347,0.594-0.495,1.09-0.495c0.495,0,0.842,0.148,1.089,0.495
			c0.248,0.347,0.396,0.842,0.396,1.486L241.621,268.754L241.621,268.754z"/>
		<polygon id="polygon3350" points="247.564,271.429 247.564,268.606 247.465,265.733 247.465,265.733 249.247,271.429 
			249.941,271.429 251.724,265.733 251.724,265.733 251.625,268.606 251.625,271.429 252.665,271.429 252.665,264.049 
			251.327,264.049 249.594,270.091 249.594,270.091 247.861,264.049 246.524,264.049 246.524,271.429 		"/>
		<rect id="rect3352" x="256.874" y="264.049" width="1.04" height="7.379"/>
		<polygon id="polygon3354" points="263.114,271.429 263.114,265.931 263.164,265.931 265.937,271.429 266.977,271.429 
			266.977,264.049 265.937,264.049 265.937,269.497 265.937,269.497 263.114,264.049 262.074,264.049 262.074,271.429 		"/>
		<path id="path3356" inkscape:connector-curvature="0" d="M273.167,264.049h-2.03v7.379h2.03c0.792,0,1.436-0.297,1.932-0.892
			c0.495-0.594,0.743-1.337,0.743-2.278v-1.04c0-0.941-0.248-1.684-0.743-2.278C274.604,264.346,273.96,264.049,273.167,264.049z
			 M274.802,268.259c0,0.693-0.148,1.288-0.446,1.733c-0.297,0.446-0.693,0.644-1.238,0.644h-0.941v-5.794h0.941
			c0.495,0,0.941,0.198,1.238,0.644c0.297,0.446,0.446,0.99,0.446,1.733V268.259L274.802,268.259z"/>
		<path id="path3358" inkscape:connector-curvature="0" d="M283.567,268.16c-0.347-0.347-0.842-0.644-1.535-0.842
			c-0.495-0.198-0.892-0.396-1.09-0.594c-0.248-0.198-0.347-0.495-0.347-0.792c0-0.347,0.099-0.644,0.297-0.842
			c0.198-0.248,0.495-0.347,0.891-0.347s0.693,0.148,0.941,0.396c0.198,0.248,0.347,0.644,0.347,1.04h0.991v-0.05
			c0-0.594-0.198-1.139-0.594-1.585c-0.396-0.446-0.99-0.644-1.634-0.644s-1.189,0.198-1.634,0.545
			c-0.396,0.396-0.644,0.842-0.644,1.436c0,0.545,0.198,1.04,0.545,1.387c0.396,0.347,0.892,0.644,1.634,0.842
			c0.495,0.149,0.842,0.347,1.04,0.594c0.198,0.248,0.297,0.495,0.297,0.842s-0.099,0.644-0.347,0.842
			c-0.198,0.198-0.545,0.347-0.891,0.347c-0.446,0-0.792-0.099-1.04-0.347c-0.248-0.248-0.396-0.594-0.396-1.139h-0.99v0.05
			c0,0.693,0.198,1.238,0.693,1.634c0.495,0.396,1.09,0.594,1.733,0.594c0.693,0,1.238-0.198,1.634-0.545
			c0.396-0.347,0.644-0.842,0.644-1.436C284.112,269.002,283.914,268.506,283.567,268.16L283.567,268.16z"/>
	</g>
</g>
</svg>
