<?xml version="1.0" encoding="UTF-8" standalone="no"?>
<!-- Created with Inkscape (http://www.inkscape.org/) -->

<svg
   xmlns:dc="http://purl.org/dc/elements/1.1/"
   xmlns:cc="http://creativecommons.org/ns#"
   xmlns:rdf="http://www.w3.org/1999/02/22-rdf-syntax-ns#"
   xmlns:svg="http://www.w3.org/2000/svg"
   xmlns="http://www.w3.org/2000/svg"
   xmlns:sodipodi="http://sodipodi.sourceforge.net/DTD/sodipodi-0.dtd"
   xmlns:inkscape="http://www.inkscape.org/namespaces/inkscape"
   width="150mm"
   height="130mm"
   viewBox="0 0 744.09448819 744.09448819"
   id="svg2"
   version="1.1"
   inkscape:version="0.91pre3 r13670"
   sodipodi:docname="logo2.svg">
  <defs
     id="defs4" />
  <sodipodi:namedview
     id="base"
     pagecolor="#ffffff"
     bordercolor="#666666"
     borderopacity="1.0"
     inkscape:pageopacity="0.0"
     inkscape:pageshadow="2"
     inkscape:zoom="0.35"
     inkscape:cx="-195"
     inkscape:cy="520"
     inkscape:document-units="px"
     inkscape:current-layer="layer1"
     showgrid="false"
     inkscape:window-width="1680"
     inkscape:window-height="988"
     inkscape:window-x="-8"
     inkscape:window-y="-8"
     inkscape:window-maximized="1" />
  <metadata
     id="metadata7">
    <rdf:RDF>
      <cc:Work
         rdf:about="">
        <dc:format>image/svg+xml</dc:format>
        <dc:type
           rdf:resource="http://purl.org/dc/dcmitype/StillImage" />
        <dc:title></dc:title>
      </cc:Work>
    </rdf:RDF>
  </metadata>
  <g
     inkscape:label="Ebene 1"
     inkscape:groupmode="layer"
     id="layer1">
    <g
       id="g3367"
       transform="matrix(4.1578947,0,0,4.1578947,-876.21688,-879.89719)">
      <path
         id="path3340"
         d="m 297.4,221.5 c -23.5,0 -42.5,19 -42.5,42.5 0,23.5 19,42.5 42.5,42.5 23.5,0 42.5,-19 42.5,-42.5 0,-23.5 -19,-42.5 -42.5,-42.5 z m 5.9,49.3 -3.7,19.1 c -0.1,0.6 -0.7,1 -1.3,0.8 l -1.2,-0.3 c -0.3,-0.1 -0.6,-0.3 -0.7,-0.6 -0.1,-0.1 -0.2,-0.3 -0.2,-0.4 l -4.1,-18.7 c -0.1,-0.6 0.2,-1.2 0.8,-1.3 l 1.2,-0.3 c 0.6,-0.1 1.2,0.2 1.3,0.8 l 2.5,11.5 2,-11.5 c 0.1,-0.6 0.7,-1 1.3,-0.8 l 1.2,0.3 c 0.6,0.2 1,0.8 0.9,1.4 z m 8.9,-4.3 c 0,0.6 -0.5,1.1 -1.1,1.1 l -0.9,0 0,22.1 c 0,0.6 -0.5,1.1 -1.1,1.1 l -1.2,0 c -0.6,0 -1.1,-0.5 -1.1,-1.1 l 0,-22.1 -18.6,0 0,22.1 c 0,0.6 -0.5,1.1 -1.1,1.1 l -1.2,0 c -0.6,0 -1.1,-0.5 -1.1,-1.1 l 0,-22.1 -0.9,0 c -0.6,0 -1.1,-0.5 -1.1,-1.1 l 0,-1.2 c 0,-0.6 0.5,-1.1 1.1,-1.1 l 0.9,0 0,-25.3 c 0,0 0,-0.1 0,-0.1 -0.1,-0.6 0.3,-1.1 0.8,-1.2 l 1.2,-0.3 c 0.6,-0.1 1.2,0.2 1.3,0.8 l 5.1,23.3 c 0.1,0.6 -0.2,1.2 -0.8,1.3 l -1.2,0.3 c -0.6,0.1 -1.2,-0.2 -1.3,-0.8 l -1.7,-7.9 0,10 18.6,0 0,-10 -1.7,7.9 c -0.1,0.6 -0.7,1 -1.3,0.8 l -1.2,-0.3 c -0.6,-0.1 -1,-0.7 -0.8,-1.3 l 5.1,-23.3 c 0.1,-0.6 0.7,-1 1.3,-0.8 l 1.2,0.3 c 0.6,0.1 0.9,0.7 0.8,1.2 0,0 0,0.1 0,0.1 l 0,25.3 0.9,0 c 0.6,0 1.1,0.5 1.1,1.1 l 0,1.2 z"
         inkscape:connector-curvature="0" />
      <polygon
         id="polygon3342"
         points="227.8,335.3 227.8,328.7 233.6,328.7 233.6,335.3 235.6,335.3 235.6,320.4 233.6,320.4 233.6,327.1 227.8,327.1 227.8,320.4 225.8,320.4 225.8,335.3 " />
      <path
         id="path3344"
         d="m 248.4,320.2 c -1.5,0 -2.7,0.5 -3.6,1.5 -0.9,1 -1.3,2.4 -1.3,4.1 l 0,4.1 c 0,1.8 0.4,3.2 1.3,4.1 0.9,1 2.1,1.5 3.6,1.5 1.5,0 2.8,-0.5 3.7,-1.5 0.9,-1 1.4,-2.4 1.4,-4.1 l 0,-4.1 c 0,-1.8 -0.5,-3.1 -1.4,-4.1 -0.9,-1 -2.1,-1.5 -3.7,-1.5 z m 3,9.7 c 0,1.3 -0.3,2.3 -0.8,3 -0.5,0.7 -1.3,1 -2.2,1 -0.9,0 -1.6,-0.3 -2.1,-1 -0.5,-0.7 -0.8,-1.7 -0.8,-3 l 0,-4.1 c 0,-1.3 0.2,-2.3 0.7,-3 0.5,-0.7 1.2,-1 2.2,-1 1,0 1.7,0.3 2.2,1 0.5,0.7 0.8,1.7 0.8,3 l 0,4.1 z"
         inkscape:connector-curvature="0" />
      <polygon
         id="polygon3346"
         points="263.4,333.7 263.4,320.4 261.3,320.4 261.3,335.3 269.2,335.3 269.2,333.7 " />
      <path
         id="path3348"
         d="m 280.3,320.2 c -1.5,0 -2.7,0.5 -3.6,1.5 -0.9,1 -1.3,2.4 -1.3,4.1 l 0,4.1 c 0,1.8 0.4,3.2 1.3,4.1 0.9,1 2.1,1.5 3.6,1.5 1.5,0 2.8,-0.5 3.7,-1.5 0.9,-1 1.4,-2.4 1.4,-4.1 l 0,-4.1 c 0,-1.8 -0.5,-3.1 -1.4,-4.1 -0.9,-1 -2.1,-1.5 -3.7,-1.5 z m 3,9.7 c 0,1.3 -0.3,2.3 -0.8,3 -0.5,0.7 -1.3,1 -2.2,1 -0.9,0 -1.6,-0.3 -2.1,-1 -0.5,-0.7 -0.8,-1.7 -0.8,-3 l 0,-4.1 c 0,-1.3 0.2,-2.3 0.7,-3 0.5,-0.7 1.2,-1 2.2,-1 1,0 1.7,0.3 2.2,1 0.5,0.7 0.8,1.7 0.8,3 l 0,4.1 z"
         inkscape:connector-curvature="0" />
      <polygon
         id="polygon3350"
         points="295.3,335.3 295.3,329.6 295.1,323.8 295.1,323.8 298.7,335.3 300.1,335.3 303.7,323.8 303.7,323.8 303.5,329.6 303.5,335.3 305.6,335.3 305.6,320.4 302.9,320.4 299.4,332.6 299.4,332.6 295.9,320.4 293.2,320.4 293.2,335.3 " />
      <rect
         id="rect3352"
         height="14.9"
         width="2.0999999"
         y="320.39999"
         x="314.10001" />
      <polygon
         id="polygon3354"
         points="326.7,335.3 326.7,324.2 326.8,324.2 332.4,335.3 334.5,335.3 334.5,320.4 332.4,320.4 332.4,331.4 332.4,331.4 326.7,320.4 324.6,320.4 324.6,335.3 " />
      <path
         id="path3356"
         d="m 347,320.4 -4.1,0 0,14.9 4.1,0 c 1.6,0 2.9,-0.6 3.9,-1.8 1,-1.2 1.5,-2.7 1.5,-4.6 l 0,-2.1 c 0,-1.9 -0.5,-3.4 -1.5,-4.6 -1,-1.2 -2.3,-1.8 -3.9,-1.8 z m 3.3,8.5 c 0,1.4 -0.3,2.6 -0.9,3.5 -0.6,0.9 -1.4,1.3 -2.5,1.3 l -1.9,0 0,-11.7 1.9,0 c 1,0 1.9,0.4 2.5,1.3 0.6,0.9 0.9,2 0.9,3.5 l 0,2.1 z"
         inkscape:connector-curvature="0" />
      <path
         id="path3358"
         d="m 368,328.7 c -0.7,-0.7 -1.7,-1.3 -3.1,-1.7 -1,-0.4 -1.8,-0.8 -2.2,-1.2 -0.5,-0.4 -0.7,-1 -0.7,-1.6 0,-0.7 0.2,-1.3 0.6,-1.7 0.4,-0.5 1,-0.7 1.8,-0.7 0.8,0 1.4,0.3 1.9,0.8 0.4,0.5 0.7,1.3 0.7,2.1 l 2,0 0,-0.1 c 0,-1.2 -0.4,-2.3 -1.2,-3.2 -0.8,-0.9 -2,-1.3 -3.3,-1.3 -1.3,0 -2.4,0.4 -3.3,1.1 -0.8,0.8 -1.3,1.7 -1.3,2.9 0,1.1 0.4,2.1 1.1,2.8 0.8,0.7 1.8,1.3 3.3,1.7 1,0.3 1.7,0.7 2.1,1.2 0.4,0.5 0.6,1 0.6,1.7 0,0.7 -0.2,1.3 -0.7,1.7 -0.4,0.4 -1.1,0.7 -1.8,0.7 -0.9,0 -1.6,-0.2 -2.1,-0.7 -0.5,-0.5 -0.8,-1.2 -0.8,-2.3 l -2,0 0,0.1 c 0,1.4 0.4,2.5 1.4,3.3 1,0.8 2.2,1.2 3.5,1.2 1.4,0 2.5,-0.4 3.3,-1.1 0.8,-0.7 1.3,-1.7 1.3,-2.9 0,-1.1 -0.4,-2.1 -1.1,-2.8 z"
         inkscape:connector-curvature="0" />
    </g>
  </g>
  <style
     id="style3338">.style0{enable-background:	new 0 0 595.3 841.9;}</style>
</svg>
